<?xml version="1.0" standalone="no"?>
<!DOCTYPE svg PUBLIC "-//W3C//DTD SVG 20010904//EN"
 "http://www.w3.org/TR/2001/REC-SVG-20010904/DTD/svg10.dtd">
<svg version="1.0" xmlns="http://www.w3.org/2000/svg"
 width="474.000000pt" height="474.000000pt" viewBox="0 0 474.000000 474.000000"
 preserveAspectRatio="xMidYMid meet">

<g transform="translate(0.000000,474.000000) scale(0.100000,-0.100000)"
fill="#000000" stroke="none">
<path d="M2275 4722 c-27 -10 -378 -214 -780 -454 -401 -239 -809 -482 -904
-539 -192 -114 -232 -147 -267 -223 l-24 -51 0 -1076 c0 -1200 -4 -1127 71
-1212 29 -33 122 -94 371 -243 183 -109 594 -354 913 -544 319 -190 594 -352
612 -359 50 -20 162 -17 214 7 24 11 449 261 944 556 661 394 910 547 937 577
20 22 46 65 58 96 20 54 20 66 18 1131 l-3 1077 -27 50 c-48 92 53 27 -1459
928 -245 146 -467 272 -493 281 -60 21 -118 20 -181 -2z m205 -345 c58 -34
455 -271 883 -526 l777 -463 0 -1017 -1 -1016 -322 -192 c-177 -106 -575 -343
-885 -528 l-563 -336 -347 207 c-191 114 -591 353 -889 531 l-543 324 0 1012
0 1012 883 527 c485 289 887 527 892 527 6 0 57 -27 115 -62z"/>
<path d="M2068 2983 l-36 -38 268 -280 c148 -154 269 -285 269 -290 1 -6 -120
-139 -269 -295 l-269 -285 32 -33 c17 -18 36 -31 42 -30 20 5 590 610 596 633
5 19 -34 65 -253 296 -143 151 -278 293 -301 317 l-43 42 -36 -37z"/>
</g>
</svg>
